<?xml version="1.0" standalone="no"?>
<!DOCTYPE svg PUBLIC "-//W3C//DTD SVG 20010904//EN"
 "http://www.w3.org/TR/2001/REC-SVG-20010904/DTD/svg10.dtd">
<svg version="1.0" xmlns="http://www.w3.org/2000/svg"
 width="60.000000pt" height="60.000000pt" viewBox="0 0 60.000000 60.000000"
 preserveAspectRatio="xMidYMid meet">

<g transform="translate(0.000000,60.000000) scale(0.100000,-0.100000)"
fill="#000000" stroke="none">
<path d="M109 477 c-65 -35 -102 -100 -107 -188 -2 -38 -1 -80 2 -94 7 -29 36
-34 36 -6 0 33 48 71 90 71 42 0 87 -36 92 -73 3 -20 10 -22 70 -25 l66 -3 12
36 c23 70 99 88 151 36 16 -16 29 -39 29 -50 0 -25 13 -27 34 -5 18 18 21 70
6 109 -17 46 -60 55 -259 55 l-181 0 -17 26 c-15 24 -15 29 -2 53 14 25 17 26
132 29 65 1 117 7 117 12 0 23 -61 40 -143 40 -69 0 -92 -4 -128 -23z m421
-187 c0 -5 -9 -10 -20 -10 -11 0 -20 5 -20 10 0 6 9 10 20 10 11 0 20 -4 20
-10z"/>
<path d="M149 414 c-22 -26 1 -49 55 -52 l46 -3 0 35 c0 36 0 36 -44 36 -28 0
-48 -6 -57 -16z"/>
<path d="M270 395 l0 -35 90 0 90 0 -13 33 c-13 32 -14 32 -90 35 l-77 3 0
-36z"/>
<path d="M80 220 c-26 -26 -26 -81 -2 -103 25 -23 85 -22 105 1 40 45 6 122
-53 122 -17 0 -39 -9 -50 -20z"/>
<path d="M409 222 c-28 -23 -30 -73 -4 -102 24 -26 79 -26 105 0 63 63 -31
158 -101 102z"/>
</g>
</svg>
