<?xml version="1.0" standalone="no"?>
<!DOCTYPE svg PUBLIC "-//W3C//DTD SVG 20010904//EN"
 "http://www.w3.org/TR/2001/REC-SVG-20010904/DTD/svg10.dtd">
<svg version="1.0" xmlns="http://www.w3.org/2000/svg"
 width="60.000000pt" height="60.000000pt" viewBox="0 0 60.000000 60.000000"
 preserveAspectRatio="xMidYMid meet">

<g transform="translate(0.000000,60.000000) scale(0.100000,-0.100000)"
fill="#000000" stroke="none">
<path d="M130 484 c-42 -18 -86 -59 -107 -98 -19 -37 -31 -186 -14 -186 7 0
11 24 11 70 0 81 21 132 70 173 88 75 258 58 317 -32 38 -56 33 -61 -57 -61
-79 0 -80 0 -80 25 0 14 -4 25 -10 25 -5 0 -10 -11 -10 -25 0 -22 -4 -25 -39
-25 -37 0 -71 19 -71 40 0 35 13 40 96 40 49 0 84 4 84 10 0 13 -146 13 -171
0 -22 -12 -27 -71 -6 -88 7 -6 88 -12 201 -14 l188 -3 24 -29 c20 -23 24 -37
22 -75 -4 -58 -26 -65 -67 -22 -34 36 -72 40 -101 11 -43 -43 -11 -120 50
-120 21 0 36 8 52 30 12 17 29 30 38 30 60 0 67 112 11 162 -23 21 -42 28 -71
28 -36 0 -41 3 -55 37 -20 48 -52 82 -92 99 -43 19 -169 17 -213 -2z m368
-276 c21 -21 14 -66 -13 -84 -52 -34 -111 31 -70 76 20 22 65 26 83 8z"/>
<path d="M480 290 c0 -5 9 -10 20 -10 11 0 20 5 20 10 0 6 -9 10 -20 10 -11 0
-20 -4 -20 -10z"/>
<path d="M82 217 c-44 -46 -14 -117 48 -117 29 0 70 29 70 50 0 6 30 10 71 10
44 0 68 4 64 10 -3 6 -33 10 -66 10 -55 0 -63 3 -86 30 -31 37 -70 40 -101 7z
m93 -21 c19 -28 9 -58 -25 -76 -24 -13 -54 0 -70 31 -17 30 11 69 50 69 20 0
35 -8 45 -24z"/>
</g>
</svg>
